<svg viewBox="0 0 67 64" xmlns="http://www.w3.org/2000/svg" fill-rule="evenodd" clip-rule="evenodd" stroke-linejoin="round" stroke-miterlimit="1.414"><g fill="#0cdcc0"><path d="M34.443.272l17.5 10.205c.615.359.993 1.017.993 1.728V32.65c0 .711-.378 1.369-.993 1.728l-17.5 10.205a2 2 0 0 1-2.015 0l-17.5-10.205a2 2 0 0 1-.992-1.728V12.205a2 2 0 0 1 .992-1.728L32.428.272a2 2 0 0 1 2.015 0z" fill-opacity=".5"/><path d="M34.229 5.19l13.9 7.932c.499.284.807.815.807 1.389v15.832a1.6 1.6 0 0 1-.807 1.39l-13.9 7.932a1.597 1.597 0 0 1-1.586 0l-13.9-7.932a1.6 1.6 0 0 1-.807-1.39V14.511c0-.574.308-1.105.807-1.389l13.9-7.932a1.597 1.597 0 0 1 1.586 0z" fill-opacity=".5"/><path d="M34.048 9.146l10.3 6.11c.364.217.588.609.588 1.032v12.278a1.2 1.2 0 0 1-.588 1.032l-10.3 6.111a1.2 1.2 0 0 1-1.225 0l-10.3-6.111a1.2 1.2 0 0 1-.587-1.032V16.288c0-.423.223-.815.587-1.032l10.3-6.11a1.2 1.2 0 0 1 1.225 0z" fill-opacity=".5"/><path serif:id="Polygon" d="M33.85 13.581l6.7 4.064c.24.145.386.404.386.684v8.197c0 .28-.146.539-.386.684l-6.7 4.064a.802.802 0 0 1-.829 0l-6.7-4.064a.8.8 0 0 1-.385-.684v-8.197a.8.8 0 0 1 .385-.684l6.7-4.064a.802.802 0 0 1 .829 0z"/></g><g fill="#fff" fill-rule="nonzero"><path d="M6.336 61.803H2.463L1.455 64H-.016l4.477-9.615L8.779 64H7.285l-.949-2.197zm-.557-1.283l-1.342-3.077-1.406 3.077h2.748zM11.275 58.563l3.522-3.61h1.822l-4.09 4.096L16.643 64h-1.829l-3.257-4.025-.282.281V64H9.91v-9.047h1.365v3.609zM20.926 60.145L23.727 64h-1.67l-2.584-3.703h-.246V64h-1.366v-9.047h1.6c1.195 0 2.059.225 2.59.674.586.5.879 1.16.879 1.98 0 .641-.184 1.192-.551 1.653a2.456 2.456 0 0 1-1.453.885zm-1.699-1.038h.433c1.293 0 1.94-.494 1.94-1.482 0-.926-.629-1.389-1.887-1.389h-.486v2.871zM24.43 59.436c0-1.274.466-2.368 1.4-3.282.93-.914 2.047-1.371 3.352-1.371 1.289 0 2.394.461 3.316 1.383.926.922 1.389 2.029 1.389 3.322 0 1.301-.465 2.405-1.395 3.311-.933.91-2.06 1.365-3.381 1.365-1.168 0-2.216-.404-3.146-1.213-1.024-.894-1.535-2.066-1.535-3.515zm1.377.017c0 1 .336 1.822 1.007 2.467.668.644 1.44.967 2.315.967.949 0 1.75-.328 2.402-.985.653-.664.979-1.472.979-2.425 0-.965-.322-1.774-.967-2.426-.641-.656-1.434-.985-2.379-.985-.941 0-1.736.329-2.385.985-.648.648-.972 1.449-.972 2.402zM36.969 60.326V64h-1.365v-9.047h1.546c.758 0 1.33.053 1.717.158a2.3 2.3 0 0 1 1.031.598c.52.508.78 1.148.78 1.922 0 .828-.278 1.484-.832 1.969-.555.484-1.303.726-2.244.726h-.633zm0-1.265h.51c1.253 0 1.88-.483 1.88-1.448 0-.933-.646-1.4-1.939-1.4h-.451v2.848zM41.633 59.436c0-1.274.467-2.368 1.4-3.282.93-.914 2.047-1.371 3.352-1.371 1.289 0 2.394.461 3.316 1.383.926.922 1.389 2.029 1.389 3.322 0 1.301-.465 2.405-1.395 3.311-.933.91-2.06 1.365-3.381 1.365-1.168 0-2.216-.404-3.146-1.213-1.023-.894-1.535-2.066-1.535-3.515zm1.377.017c0 1 .336 1.822 1.008 2.467.668.644 1.439.967 2.314.967.949 0 1.75-.328 2.402-.985.653-.664.979-1.472.979-2.425 0-.965-.322-1.774-.967-2.426-.641-.656-1.434-.985-2.379-.985-.941 0-1.736.329-2.385.985-.648.648-.972 1.449-.972 2.402zM54.172 54.953v7.764h2.66V64h-4.025v-9.047h1.365zM58.127 54.953h1.365V64h-1.365zM66.781 56.301l-1.107.656c-.207-.359-.404-.594-.592-.703-.195-.125-.447-.188-.756-.188-.379 0-.693.108-.943.323a.998.998 0 0 0-.375.797c0 .441.328.796.984 1.066l.903.369c.734.297 1.271.659 1.611 1.087.34.428.51.952.51 1.573 0 .832-.278 1.52-.832 2.063-.559.547-1.252.82-2.08.82-.786 0-1.434-.232-1.946-.697-.504-.465-.818-1.119-.943-1.963l1.383-.305c.062.531.172.899.328 1.102.281.39.691.586 1.23.586.426 0 .78-.143 1.061-.428.281-.285.422-.646.422-1.084a1.51 1.51 0 0 0-.074-.483 1.217 1.217 0 0 0-.228-.405 1.825 1.825 0 0 0-.401-.345 3.918 3.918 0 0 0-.586-.308l-.873-.363c-1.239-.524-1.858-1.289-1.858-2.297 0-.68.26-1.248.779-1.705.52-.461 1.166-.692 1.94-.692 1.043 0 1.857.508 2.443 1.524z"/></g></svg>
