<svg width="16" height="16" viewBox="0 0 16 16" fill="none" xmlns="http://www.w3.org/2000/svg">
<path fill-rule="evenodd" clip-rule="evenodd" d="M2 0C0.895447 0 0 0.895432 0 2V14C0 15.1046 0.895447 16 2 16H14C15.1046 16 16 15.1046 16 14V2C16 0.895432 15.1046 0 14 0H2ZM12.848 4.53C13.1407 4.06166 12.9984 3.44471 12.53 3.152C12.0616 2.85929 11.4447 3.00166 11.152 3.47L6.92493 10.2333L4.79999 7.4C4.46863 6.95817 3.84186 6.86863 3.40002 7.2C2.95819 7.53137 2.86865 8.15817 3.20001 8.6L6.20001 12.6C6.39783 12.8638 6.71301 13.0131 7.04242 12.9991C7.37189 12.9851 7.67322 12.8096 7.84802 12.53L12.848 4.53Z" fill="#0434DA"/>
</svg>
