<svg width="8" height="6" viewBox="0 0 8 6" fill="none" xmlns="http://www.w3.org/2000/svg">
<path d="M7.45982 2.66964C7.45982 2.55804 7.41518 2.44643 7.33482 2.36607L6.72768 1.75893C6.64732 1.67857 6.53571 1.63393 6.42411 1.63393C6.3125 1.63393 6.20089 1.67857 6.12054 1.75893L3.19196 4.69196L1.87946 3.375C1.79911 3.29464 1.6875 3.25 1.57589 3.25C1.46429 3.25 1.35268 3.29464 1.27232 3.375L0.665179 3.98214C0.584821 4.0625 0.540179 4.17411 0.540179 4.28571C0.540179 4.39732 0.584821 4.50893 0.665179 4.58929L2.28125 6.20536L2.88839 6.8125C2.96875 6.89286 3.08036 6.9375 3.19196 6.9375C3.30357 6.9375 3.41518 6.89286 3.49554 6.8125L4.10268 6.20536L7.33482 2.97321C7.41518 2.89286 7.45982 2.78125 7.45982 2.66964Z" transform="translate(0 -1)" fill="#68A973"/>
</svg>
