<svg width="23" height="21" viewBox="0 0 23 21" fill="none" xmlns="http://www.w3.org/2000/svg">
<path d="M6.4894 12.2545C3.851 11.7054 2.06975 9.88393 2.06975 8.57143V7.28571H5.49833C5.49833 9.38839 5.9269 11.0223 6.4894 12.2545ZM20.9269 8.57143C20.9269 9.88393 19.1456 11.7054 16.5073 12.2545C17.0698 11.0223 17.4983 9.38839 17.4983 7.28571H20.9269V8.57143ZM22.6412 6.85714C22.6412 6.14732 22.0653 5.57143 21.3555 5.57143H17.4983V4.28571C17.4983 3.10714 16.534 2.14286 15.3555 2.14286H7.64118C6.46261 2.14286 5.49833 3.10714 5.49833 4.28571V5.57143H1.64118C0.931362 5.57143 0.355469 6.14732 0.355469 6.85714V8.57143C0.355469 11.1161 3.43583 13.9286 7.6144 14.1295C8.15011 14.8125 8.64565 15.2143 8.88672 15.4018C9.59654 16.0446 9.78404 16.7143 9.78404 17.5714C9.78404 18.4286 9.35547 19.2857 8.06975 19.2857C6.78404 19.2857 5.49833 20.1429 5.49833 21.4286V22.2857C5.49833 22.5268 5.68583 22.7143 5.9269 22.7143H17.0698C17.3108 22.7143 17.4983 22.5268 17.4983 22.2857V21.4286C17.4983 20.1429 16.2126 19.2857 14.9269 19.2857C13.6412 19.2857 13.2126 18.4286 13.2126 17.5714C13.2126 16.7143 13.4001 16.0446 14.1099 15.4018C14.351 15.2143 14.8465 14.8125 15.3823 14.1295C19.5608 13.9286 22.6412 11.1161 22.6412 8.57143V6.85714Z" transform="translate(0 -2)" fill="black"/>
</svg>
