<svg width="17" height="19" viewBox="0 0 17 19" fill="none" xmlns="http://www.w3.org/2000/svg">
<path d="M4.57478 10.7143V8.14286C4.57478 6.25446 6.11496 4.71429 8.00335 4.71429C9.89174 4.71429 11.4319 6.25446 11.4319 8.14286V10.7143H4.57478ZM15.7176 12C15.7176 11.2902 15.1417 10.7143 14.4319 10.7143H14.0033V8.14286C14.0033 4.84821 11.298 2.14286 8.00335 2.14286C4.70871 2.14286 2.00335 4.84821 2.00335 8.14286V10.7143H1.57478C0.864955 10.7143 0.289062 11.2902 0.289062 12V19.7143C0.289062 20.4241 0.864955 21 1.57478 21H14.4319C15.1417 21 15.7176 20.4241 15.7176 19.7143V12Z" transform="translate(0.561035 -2)" fill="black"/>
</svg>
