<svg width="23" height="23" viewBox="0 0 23 23" fill="none" xmlns="http://www.w3.org/2000/svg">
<path d="M15.784 11.5714C15.784 14.8795 13.0921 17.5714 9.78404 17.5714C6.476 17.5714 3.78404 14.8795 3.78404 11.5714C3.78404 8.26339 6.476 5.57143 9.78404 5.57143C13.0921 5.57143 15.784 8.26339 15.784 11.5714ZM22.6412 22.7143C22.6412 22.2589 22.4537 21.817 22.1456 21.5089L17.5519 16.9152C18.6367 15.3482 19.2126 13.4732 19.2126 11.5714C19.2126 6.36161 14.9939 2.14286 9.78404 2.14286C4.57422 2.14286 0.355469 6.36161 0.355469 11.5714C0.355469 16.7812 4.57422 21 9.78404 21C11.6858 21 13.5608 20.4241 15.1278 19.3393L19.7215 23.9196C20.0296 24.2411 20.4715 24.4286 20.9269 24.4286C21.8644 24.4286 22.6412 23.6518 22.6412 22.7143Z" transform="translate(0 -2)" fill="black"/>
</svg>
