<svg width="24" height="24" viewBox="0 0 24 24" fill="none" xmlns="http://www.w3.org/2000/svg">
<path d="M0 18.9844V21C0 21.5312 0.40625 22.0312 1.21875 22.5C2.03125 22.9688 3.125 23.3281 4.5 23.5781C5.875 23.8594 7.375 24 9 24C10.625 24 12.125 23.8594 13.5 23.5781C14.875 23.3281 15.9688 22.9688 16.7812 22.5C17.5938 22.0312 18 21.5312 18 21V18.9844C17.0625 19.6406 15.7656 20.1562 14.1094 20.5312C12.5469 20.8438 10.8438 21 9 21C7.15625 21 5.45312 20.8438 3.89062 20.5312C2.23438 20.1562 0.9375 19.6406 0 18.9844ZM15 6C16.625 6 18.125 5.875 19.5 5.625C20.875 5.34375 21.9688 4.96875 22.7812 4.5C23.5938 4.03125 24 3.53125 24 3C24 2.46875 23.5938 1.96875 22.7812 1.5C21.9688 1.03125 20.875 0.671875 19.5 0.421875C18.125 0.140625 16.625 0 15 0C13.375 0 11.875 0.140625 10.5 0.421875C9.125 0.671875 8.03125 1.03125 7.21875 1.5C6.40625 1.96875 6 2.46875 6 3C6 3.53125 6.40625 4.03125 7.21875 4.5C8.03125 4.96875 9.125 5.34375 10.5 5.625C11.875 5.875 13.375 6 15 6ZM0 14.0625V16.5C0 17.0312 0.40625 17.5312 1.21875 18C2.03125 18.4688 3.125 18.8438 4.5 19.125C5.875 19.375 7.375 19.5 9 19.5C10.625 19.5 12.125 19.375 13.5 19.125C14.875 18.8438 15.9688 18.4688 16.7812 18C17.5938 17.5312 18 17.0312 18 16.5V14.0625C17.0625 14.8438 15.7656 15.4531 14.1094 15.8906C12.5156 16.2969 10.8125 16.5 9 16.5C7.1875 16.5 5.48438 16.2969 3.89062 15.8906C2.23438 15.4531 0.9375 14.8438 0 14.0625ZM19.5 14.5781C20.875 14.3281 21.9688 13.9688 22.7812 13.5C23.5938 13.0312 24 12.5312 24 12V9.98438C22.9688 10.7344 21.4688 11.2812 19.5 11.625V14.5781ZM9 7.5C7.375 7.5 5.875 7.67188 4.5 8.01562C3.125 8.35938 2.03125 8.8125 1.21875 9.375C0.40625 9.9375 0 10.5625 0 11.25C0 11.9375 0.40625 12.5625 1.21875 13.125C2.03125 13.6875 3.125 14.1406 4.5 14.4844C5.875 14.8281 7.375 15 9 15C10.625 15 12.125 14.8281 13.5 14.4844C14.875 14.1406 15.9688 13.6875 16.7812 13.125C17.5938 12.5625 18 11.9375 18 11.25C18 10.5625 17.5938 9.9375 16.7812 9.375C15.9688 8.8125 14.875 8.35938 13.5 8.01562C12.125 7.67188 10.625 7.5 9 7.5ZM19.2656 10.125C20.7031 9.875 21.8438 9.51562 22.6875 9.04688C23.5625 8.57812 24 8.0625 24 7.5V5.48438C23.1875 6.04688 22.0938 6.5 20.7188 6.84375C19.4688 7.1875 18.0469 7.39063 16.4531 7.45312C17.9531 8.17188 18.8906 9.0625 19.2656 10.125Z" fill="black"/>
</svg>
