<?xml version="1.0" encoding="UTF-8" standalone="no"?><!DOCTYPE svg PUBLIC "-//W3C//DTD SVG 1.1//EN" "http://www.w3.org/Graphics/SVG/1.1/DTD/svg11.dtd"><svg viewBox="0 0 678 779" version="1.1" xmlns="http://www.w3.org/2000/svg" xmlns:xlink="http://www.w3.org/1999/xlink" xml:space="preserve" xmlns:serif="http://www.serif.com/" style="fill-rule:evenodd;clip-rule:evenodd;stroke-linejoin:round;stroke-miterlimit:1.41421;"><path id="Polygon" d="M356.033,4.728l303.821,177.171c10.667,6.221 17.229,17.642 17.229,29.992l0,354.945c0,12.35 -6.562,23.771 -17.229,29.996l-303.821,177.171c-10.808,6.3 -24.175,6.3 -34.983,0l-303.821,-177.171c-10.666,-6.225 -17.229,-17.646 -17.229,-29.996l0,-354.945c0,-12.35 6.563,-23.771 17.229,-29.992l303.821,-177.171c10.808,-6.304 24.175,-6.304 34.983,0Z" style="fill:#fff;fill-opacity:0.498039;"/><path id="Polygon1" serif:id="Polygon" d="M352.308,90.095l241.321,137.712c8.663,4.942 14.009,14.15 14.009,24.125l0,274.863c0,9.975 -5.346,19.183 -14.009,24.125l-241.321,137.712c-8.533,4.871 -19,4.871 -27.533,0l-241.321,-137.712c-8.662,-4.942 -14.008,-14.15 -14.008,-24.125l0,-274.863c0,-9.975 5.346,-19.183 14.008,-24.125l241.321,-137.712c8.533,-4.867 19,-4.867 27.533,0Z" style="fill:#fff;fill-opacity:0.498039;"/><path id="Polygon2" serif:id="Polygon" d="M349.171,158.782l178.821,106.084c6.325,3.754 10.204,10.562 10.204,17.916l0,213.163c0,7.354 -3.879,14.162 -10.204,17.916l-178.821,106.084c-6.554,3.887 -14.704,3.887 -21.259,0l-178.82,-106.084c-6.325,-3.754 -10.205,-10.562 -10.205,-17.916l0,-213.163c0,-7.354 3.88,-14.162 10.205,-17.916l178.82,-106.084c6.555,-3.887 14.705,-3.887 21.259,0Z" style="fill:#fff;fill-opacity:0.498039;"/><path id="Polygon3" serif:id="Polygon" d="M328.383,227.103l116.321,70.55c4.15,2.517 6.684,7.021 6.684,11.875l0,142.308c0,4.859 -2.534,9.359 -6.684,11.88l-116.321,70.55c-4.425,2.683 -9.979,2.683 -14.404,0l-116.321,-70.55c-4.15,-2.521 -6.687,-7.021 -6.687,-11.88l0,-142.308c0,-4.854 2.537,-9.358 6.687,-11.875l116.321,-70.55c4.425,-2.687 9.979,-2.687 14.404,0Z" style="fill:#fff;"/></svg>