<svg viewBox="0 0 678 779" xmlns="http://www.w3.org/2000/svg" fill-rule="evenodd" clip-rule="evenodd" stroke-linejoin="round" stroke-miterlimit="1.414"><path d="M356.033 4.728l303.821 177.171a34.722 34.722 0 0 1 17.229 29.992v354.945a34.733 34.733 0 0 1-17.229 29.996L356.033 774.003a34.738 34.738 0 0 1-34.983 0L17.229 596.832A34.735 34.735 0 0 1 0 566.836V211.891a34.724 34.724 0 0 1 17.229-29.992L321.05 4.728a34.72 34.72 0 0 1 34.983 0z" fill="#fff" fill-opacity=".494"/><path d="M352.766 90.23l241.321 137.712a27.772 27.772 0 0 1 14.009 24.125V526.93a27.772 27.772 0 0 1-14.009 24.125L352.766 688.767a27.765 27.765 0 0 1-27.533 0L83.912 551.055a27.773 27.773 0 0 1-14.008-24.125V252.067a27.773 27.773 0 0 1 14.008-24.125L325.233 90.23a27.785 27.785 0 0 1 27.533 0z" fill="#fff" fill-opacity=".494"/><path d="M349.63 158.919l178.821 106.084a20.834 20.834 0 0 1 10.203 17.916v213.163a20.836 20.836 0 0 1-10.203 17.916L349.629 620.081a20.836 20.836 0 0 1-21.259 0L149.55 513.997a20.836 20.836 0 0 1-10.205-17.916V282.918c0-7.354 3.88-14.162 10.206-17.916l178.82-106.084a20.836 20.836 0 0 1 21.259 0z" fill="#fff" fill-opacity=".494"/><path d="M345.745 235.784l116.321 70.55a13.889 13.889 0 0 1 6.684 11.875v142.308c0 4.858-2.534 9.358-6.684 11.88l-116.321 70.55a13.894 13.894 0 0 1-14.404 0L215.02 472.396a13.899 13.899 0 0 1-6.687-11.88V318.208c0-4.854 2.537-9.358 6.687-11.875l116.321-70.55a13.877 13.877 0 0 1 14.404 0z" fill="#fff"/></svg>
