<svg width="12" height="11" viewBox="0 0 12 11" fill="none" xmlns="http://www.w3.org/2000/svg">
<path d="M5.55162 0.908616C5.73502 0.536966 6.26498 0.536967 6.44838 0.908617L7.6469 3.33736C7.71973 3.48495 7.86053 3.58725 8.0234 3.61091L10.7036 4.00024C11.1138 4.05982 11.2775 4.56384 10.9807 4.85311L9.04124 6.74349C8.92338 6.85837 8.8696 7.02389 8.89743 7.1861L9.35539 9.85547C9.42546 10.2639 8.99672 10.5754 8.62989 10.3826L6.23269 9.12214C6.08702 9.04555 5.91298 9.04555 5.76731 9.12214L3.37011 10.3826C3.00328 10.5754 2.57454 10.2639 2.64461 9.85547L3.10257 7.1861C3.1304 7.02389 3.07662 6.85837 2.95876 6.74349L1.01925 4.85311C0.722464 4.56384 0.88623 4.05982 1.29636 4.00024L3.9766 3.61091C4.13947 3.58725 4.28027 3.48495 4.3531 3.33736L5.55162 0.908616Z" fill="#828282"/>
</svg>
